<svg width="195" height="48" viewBox="0 0 195 48" fill="none" xmlns="http://www.w3.org/2000/svg">
<path d="M6.37161 34.9515C4.51323 34.9515 2.98669 34.3745 1.79202 33.2205C0.597339 32.0222 0 30.4466 0 28.4938C0 26.5853 0.597339 24.7878 1.79202 23.1012C2.98669 21.3703 4.62384 19.8169 6.70347 18.4411C8.78309 17.0652 11.1503 15.9556 13.8052 15.1123C14.3804 14.9348 14.668 14.5576 14.668 13.9806V7.92233C14.668 5.79196 14.3361 4.28294 13.6724 3.39528C13.0087 2.46325 12.1016 1.99723 10.9512 1.99723C9.84503 1.99723 8.82734 2.50763 7.89815 3.52843C7.0132 4.50486 6.37161 6.16921 5.97339 8.5215C5.75215 9.94175 5.26543 10.9847 4.51323 11.6505C3.80527 12.2718 3.07519 12.5825 2.32298 12.5825C1.08406 12.5825 0.464597 11.9612 0.464597 10.7184C0.464597 9.43135 0.818575 8.16644 1.52653 6.92372C2.27874 5.63662 3.25218 4.48266 4.44686 3.46186C5.64153 2.39667 6.94683 1.5534 8.36274 0.932039C9.77866 0.31068 11.1946 0 12.6105 0C16.991 0 19.1812 2.55201 19.1812 7.65603V28.0277C19.1812 29.8918 19.6458 30.8239 20.575 30.8239C21.1502 30.8239 21.6812 30.4466 22.1679 29.6921C22.6546 28.8932 22.898 27.5617 22.898 25.6976C22.898 24.9875 23.1856 24.6325 23.7608 24.6325C24.2918 24.6325 24.5573 25.0097 24.5573 25.7642C24.5573 29.0042 23.982 31.3564 22.8316 32.8211C21.7254 34.2413 20.4644 34.9515 19.0485 34.9515C17.9865 34.9515 17.1458 34.5298 16.5264 33.6866C15.9069 32.7989 15.4866 31.7559 15.2653 30.5576C15.2211 30.1137 15.022 29.8918 14.668 29.8918C14.3583 29.8474 14.0485 30.0472 13.7388 30.491C12.6769 31.9556 11.5928 33.0652 10.4866 33.8197C9.38043 34.5742 8.00876 34.9515 6.37161 34.9515ZM8.16363 31.889C9.31406 31.889 10.376 31.4896 11.3494 30.6907C12.3229 29.8474 13.1193 28.7379 13.7388 27.362C14.3583 25.9861 14.668 24.4327 14.668 22.7018V17.8419C14.668 16.9986 14.2034 16.7545 13.2742 17.1096C10.5751 18.086 8.47336 19.4397 6.96895 21.1706C5.50879 22.8571 4.77871 24.8988 4.77871 27.2954C4.77871 30.3578 5.90702 31.889 8.16363 31.889Z" fill="black"/>
<path d="M33.4785 4.6602C35.2926 1.5534 37.4828 0 40.0492 0C41.5093 0 42.5934 0.443828 43.3014 1.33148C44.0093 2.17476 44.3633 3.12899 44.3633 4.19418C44.3633 5.03745 44.1421 5.72538 43.6996 6.25798C43.3014 6.79057 42.6598 7.05687 41.7748 7.05687C41.0669 7.05687 40.5359 6.90153 40.1819 6.59085C39.8722 6.23578 39.6067 5.83634 39.3855 5.39251C39.2085 4.94868 38.9872 4.57143 38.7218 4.26075C38.4563 3.90569 38.0138 3.72816 37.3943 3.72816C36.5979 3.72816 35.8457 4.21637 35.1377 5.19279C34.4298 6.12483 33.8324 7.38974 33.3457 8.98752C32.9032 10.5853 32.682 12.405 32.682 14.4466V29.8918C32.682 30.8239 32.8147 31.4896 33.0802 31.889C33.39 32.2885 34.0094 32.5326 34.9386 32.6214L36.7306 32.8211C37.2174 32.9098 37.4607 33.154 37.4607 33.5534C37.4607 34.086 37.1289 34.3523 36.4651 34.3523H25.2484C24.5847 34.3523 24.2529 34.1082 24.2529 33.62C24.2529 33.2205 24.5405 32.9542 25.1157 32.8211L25.9122 32.6879C26.8414 32.5104 27.4387 32.2441 27.7042 31.889C28.0139 31.4896 28.1688 30.8239 28.1688 29.8918V7.52288C28.1688 6.72399 28.036 6.1914 27.7705 5.9251C27.5493 5.61443 27.129 5.4147 26.5095 5.32594L25.1157 5.12621C24.5405 5.08183 24.2529 4.83773 24.2529 4.3939C24.2529 4.03884 24.6069 3.79473 25.3148 3.66158C26.6865 3.43967 27.7263 3.08461 28.4343 2.59639C29.1865 2.10818 29.9608 1.50902 30.7572 0.798892C31.1555 0.399447 31.4873 0.199724 31.7528 0.199724C32.151 0.199724 32.3501 0.46602 32.3501 0.998612V4.59362C32.3501 4.9043 32.4829 5.10402 32.7484 5.19279C33.0139 5.23717 33.2572 5.05964 33.4785 4.6602Z" fill="black"/>
<path d="M52.949 4.6602C54.7631 1.5534 56.9534 0 59.5197 0C60.9799 0 62.0639 0.443828 62.7719 1.33148C63.4799 2.17476 63.8338 3.12899 63.8338 4.19418C63.8338 5.03745 63.6126 5.72538 63.1701 6.25798C62.7719 6.79057 62.1303 7.05687 61.2454 7.05687C60.5374 7.05687 60.0064 6.90153 59.6525 6.59085C59.3427 6.23578 59.0773 5.83634 58.856 5.39251C58.679 4.94868 58.4578 4.57143 58.1923 4.26075C57.9268 3.90569 57.4844 3.72816 56.8649 3.72816C56.0684 3.72816 55.3162 4.21637 54.6083 5.19279C53.9003 6.12483 53.303 7.38974 52.8163 8.98752C52.3738 10.5853 52.1525 12.405 52.1525 14.4466V29.8918C52.1525 30.8239 52.2853 31.4896 52.5508 31.889C52.8605 32.2885 53.48 32.5326 54.4092 32.6214L56.2012 32.8211C56.6879 32.9098 56.9313 33.154 56.9313 33.5534C56.9313 34.086 56.5994 34.3523 55.9357 34.3523H44.719C44.0553 34.3523 43.7234 34.1082 43.7234 33.62C43.7234 33.2205 44.011 32.9542 44.5863 32.8211L45.3827 32.6879C46.3119 32.5104 46.9092 32.2441 47.1747 31.889C47.4845 31.4896 47.6393 30.8239 47.6393 29.8918V7.52288C47.6393 6.72399 47.5066 6.1914 47.2411 5.9251C47.0199 5.61443 46.5995 5.4147 45.98 5.32594L44.5863 5.12621C44.011 5.08183 43.7234 4.83773 43.7234 4.3939C43.7234 4.03884 44.0774 3.79473 44.7854 3.66158C46.157 3.43967 47.1968 3.08461 47.9048 2.59639C48.657 2.10818 49.4313 1.50902 50.2278 0.798892C50.626 0.399447 50.9579 0.199724 51.2234 0.199724C51.6216 0.199724 51.8207 0.46602 51.8207 0.998612V4.59362C51.8207 4.9043 51.9534 5.10402 52.2189 5.19279C52.4844 5.23717 52.7278 5.05964 52.949 4.6602Z" fill="black"/>
<path d="M68.9963 34.9515C67.1379 34.9515 65.6113 34.3745 64.4167 33.2205C63.222 32.0222 62.6246 30.4466 62.6246 28.4938C62.6246 26.5853 63.222 24.7878 64.4167 23.1012C65.6113 21.3703 67.2485 19.8169 69.3281 18.4411C71.4077 17.0652 73.775 15.9556 76.4298 15.1123C77.005 14.9348 77.2926 14.5576 77.2926 13.9806V7.92233C77.2926 5.79196 76.9608 4.28294 76.2971 3.39528C75.6334 2.46325 74.7263 1.99723 73.5759 1.99723C72.4697 1.99723 71.452 2.50763 70.5228 3.52843C69.6378 4.50486 68.9963 6.16921 68.598 8.5215C68.3768 9.94175 67.8901 10.9847 67.1379 11.6505C66.4299 12.2718 65.6998 12.5825 64.9476 12.5825C63.7087 12.5825 63.0892 11.9612 63.0892 10.7184C63.0892 9.43135 63.4432 8.16644 64.1512 6.92372C64.9034 5.63662 65.8768 4.48266 67.0715 3.46186C68.2662 2.39667 69.5715 1.5534 70.9874 0.932039C72.4033 0.31068 73.8192 0 75.2351 0C79.6156 0 81.8059 2.55201 81.8059 7.65603V28.0277C81.8059 29.8918 82.2705 30.8239 83.1997 30.8239C83.7749 30.8239 84.3058 30.4466 84.7926 29.6921C85.2793 28.8932 85.5226 27.5617 85.5226 25.6976C85.5226 24.9875 85.8102 24.6325 86.3855 24.6325C86.9164 24.6325 87.1819 25.0097 87.1819 25.7642C87.1819 29.0042 86.6067 31.3564 85.4563 32.8211C84.3501 34.2413 83.089 34.9515 81.6731 34.9515C80.6112 34.9515 79.7705 34.5298 79.151 33.6866C78.5316 32.7989 78.1112 31.7559 77.89 30.5576C77.8457 30.1137 77.6466 29.8918 77.2926 29.8918C76.9829 29.8474 76.6732 30.0472 76.3634 30.491C75.3015 31.9556 74.2174 33.0652 73.1113 33.8197C72.0051 34.5742 70.6334 34.9515 68.9963 34.9515ZM70.7883 31.889C71.9387 31.889 73.0006 31.4896 73.9741 30.6907C74.9475 29.8474 75.744 28.7379 76.3634 27.362C76.9829 25.9861 77.2926 24.4327 77.2926 22.7018V17.8419C77.2926 16.9986 76.828 16.7545 75.8988 17.1096C73.1997 18.086 71.098 19.4397 69.5936 21.1706C68.1334 22.8571 67.4034 24.8988 67.4034 27.2954C67.4034 30.3578 68.5317 31.889 70.7883 31.889Z" fill="black"/>
<path d="M90.2241 48C89.0294 48 88.0781 47.5784 87.3701 46.7351C86.6622 45.9362 86.3082 45.0042 86.3082 43.939C86.3082 43.0957 86.5516 42.3856 87.0383 41.8086C87.525 41.2316 88.1887 40.9431 89.0294 40.9431C89.7374 40.9431 90.2462 41.0985 90.5559 41.4092C90.8657 41.7198 91.0869 42.0749 91.2196 42.4743C91.3524 42.8738 91.4851 43.2289 91.6179 43.5395C91.7506 43.8502 92.0161 44.0056 92.4143 44.0056C92.901 44.0056 93.3435 43.6505 93.7418 42.9404C94.14 42.2746 94.6931 40.8322 95.401 38.613C95.8435 37.2816 96.109 36.1276 96.1975 35.1512C96.3302 34.1748 96.3081 33.1318 96.1311 32.0222C95.9984 30.9126 95.6665 29.5589 95.1355 27.9612L87.9011 4.85992C87.5914 3.79473 87.2816 3.1068 86.9719 2.79612C86.7064 2.48544 86.2639 2.26352 85.6445 2.13037L84.6489 1.93065C84.0737 1.7975 83.7861 1.50902 83.7861 1.06519C83.7861 0.621359 84.0958 0.399444 84.7153 0.399444H95.6665C96.286 0.399444 96.5957 0.621359 96.5957 1.06519C96.5957 1.5534 96.3081 1.84189 95.7329 1.93065L94.6709 2.0638C93.609 2.19695 92.9232 2.46325 92.6134 2.86269C92.348 3.21775 92.3701 3.8835 92.6798 4.85992L98.5204 24.3662C98.6532 24.81 98.8523 25.0319 99.1178 25.0319C99.4275 25.0319 99.6488 24.81 99.7815 24.3662L105.423 6.05825C105.777 4.85992 105.866 3.97226 105.689 3.39528C105.556 2.77393 104.936 2.37448 103.83 2.19695L102.436 1.93065C101.861 1.7975 101.574 1.50902 101.574 1.06519C101.574 0.621359 101.883 0.399444 102.503 0.399444H110.932C111.551 0.399444 111.861 0.64355 111.861 1.13176C111.861 1.57559 111.596 1.88627 111.065 2.0638L110.467 2.26352C109.804 2.48544 109.25 2.88488 108.808 3.46186C108.365 4.03884 107.901 5.03745 107.414 6.4577L97.5249 37.4147C96.5515 40.5215 95.6665 42.8294 94.87 44.3384C94.1178 45.8474 93.3878 46.8239 92.6798 47.2677C91.9718 47.7559 91.1533 48 90.2241 48Z" fill="black"/>
<path d="M120.605 34.9515C118.658 34.9515 116.888 34.3079 115.295 33.0208C113.747 31.6893 112.508 29.8031 111.578 27.362C110.649 24.9209 110.185 22.0139 110.185 18.6408C110.185 14.8682 110.738 11.5839 111.844 8.7878C112.994 5.99168 114.543 3.83911 116.49 2.3301C118.437 0.776699 120.605 0 122.994 0C125.03 0 126.623 0.399445 127.773 1.19834C128.215 1.50902 128.437 1.99723 128.437 2.66297L128.569 10.785C128.569 11.4508 128.304 11.7836 127.773 11.7836C127.286 11.7836 126.976 11.4951 126.844 10.9182C126.224 8.47712 125.627 6.59085 125.052 5.25936C124.477 3.92788 123.879 3.01803 123.26 2.52982C122.64 1.99723 121.954 1.73093 121.202 1.73093C120.317 1.73093 119.388 2.24133 118.415 3.26214C117.485 4.28294 116.689 5.9473 116.025 8.2552C115.406 10.5187 115.096 13.5146 115.096 17.2427C115.096 21.9917 115.693 25.5645 116.888 27.9612C118.127 30.3578 119.72 31.5562 121.667 31.5562C123.215 31.5562 124.499 30.9126 125.516 29.6255C126.578 28.3384 127.485 26.0083 128.238 22.6352C128.37 22.147 128.636 21.9029 129.034 21.9029C129.565 21.9029 129.764 22.3467 129.631 23.2344C129.145 26.3412 128.459 28.7601 127.574 30.491C126.733 32.1775 125.715 33.3537 124.521 34.0194C123.37 34.6408 122.065 34.9515 120.605 34.9515Z" fill="black"/>
<path d="M137.454 34.9515C135.596 34.9515 134.069 34.3745 132.875 33.2205C131.68 32.0222 131.083 30.4466 131.083 28.4938C131.083 26.5853 131.68 24.7878 132.875 23.1012C134.069 21.3703 135.707 19.8169 137.786 18.4411C139.866 17.0652 142.233 15.9556 144.888 15.1123C145.463 14.9348 145.751 14.5576 145.751 13.9806V7.92233C145.751 5.79196 145.419 4.28294 144.755 3.39528C144.091 2.46325 143.184 1.99723 142.034 1.99723C140.928 1.99723 139.91 2.50763 138.981 3.52843C138.096 4.50486 137.454 6.16921 137.056 8.5215C136.835 9.94175 136.348 10.9847 135.596 11.6505C134.888 12.2718 134.158 12.5825 133.406 12.5825C132.167 12.5825 131.547 11.9612 131.547 10.7184C131.547 9.43135 131.901 8.16644 132.609 6.92372C133.361 5.63662 134.335 4.48266 135.53 3.46186C136.724 2.39667 138.03 1.5534 139.445 0.932039C140.861 0.31068 142.277 0 143.693 0C148.074 0 150.264 2.55201 150.264 7.65603V28.0277C150.264 29.8918 150.728 30.8239 151.658 30.8239C152.233 30.8239 152.764 30.4466 153.251 29.6921C153.737 28.8932 153.981 27.5617 153.981 25.6976C153.981 24.9875 154.268 24.6325 154.843 24.6325C155.374 24.6325 155.64 25.0097 155.64 25.7642C155.64 29.0042 155.065 31.3564 153.914 32.8211C152.808 34.2413 151.547 34.9515 150.131 34.9515C149.069 34.9515 148.229 34.5298 147.609 33.6866C146.99 32.7989 146.569 31.7559 146.348 30.5576C146.304 30.1137 146.105 29.8918 145.751 29.8918C145.441 29.8474 145.131 30.0472 144.821 30.491C143.76 31.9556 142.675 33.0652 141.569 33.8197C140.463 34.5742 139.091 34.9515 137.454 34.9515ZM139.246 31.889C140.397 31.889 141.459 31.4896 142.432 30.6907C143.406 29.8474 144.202 28.7379 144.821 27.362C145.441 25.9861 145.751 24.4327 145.751 22.7018V17.8419C145.751 16.9986 145.286 16.7545 144.357 17.1096C141.658 18.086 139.556 19.4397 138.052 21.1706C136.591 22.8571 135.861 24.8988 135.861 27.2954C135.861 30.3578 136.99 31.889 139.246 31.889Z" fill="black"/>
<path d="M163.035 34.9515C162.017 34.9515 160.933 34.8183 159.782 34.552C158.632 34.3301 157.703 34.0416 156.995 33.6866C156.597 33.4646 156.397 33.0874 156.397 32.5548L156.198 25.0985C156.198 24.344 156.486 23.9667 157.061 23.9667C157.548 23.9667 157.88 24.3218 158.057 25.0319C158.809 28.1831 159.716 30.3356 160.778 31.4896C161.884 32.6436 163.212 33.2205 164.76 33.2205C166.043 33.2205 167.105 32.7323 167.946 31.7559C168.787 30.7351 169.207 29.337 169.207 27.5617C169.207 25.7864 168.72 24.2108 167.747 22.835C166.773 21.4591 165.136 19.9501 162.835 18.3079C160.535 16.7545 158.853 15.2011 157.791 13.6477C156.729 12.0499 156.198 10.319 156.198 8.45492C156.198 5.9251 157.083 3.8835 158.853 2.3301C160.623 0.776699 162.968 0 165.889 0C166.773 0 167.636 0.110957 168.477 0.332871C169.318 0.510402 170.07 0.821082 170.734 1.26491C171.132 1.53121 171.331 1.88627 171.331 2.3301L171.464 9.65326C171.464 10.319 171.198 10.6519 170.667 10.6519C170.358 10.6519 170.136 10.5631 170.004 10.3856C169.871 10.1637 169.76 9.89737 169.672 9.58669C168.787 6.7018 167.902 4.70458 167.017 3.59501C166.132 2.44105 165.048 1.86408 163.765 1.86408C162.614 1.86408 161.663 2.26352 160.911 3.06241C160.159 3.8613 159.782 4.85992 159.782 6.05825C159.782 7.61165 160.247 8.96533 161.176 10.1193C162.105 11.2732 163.787 12.6935 166.22 14.38C168.433 15.9778 170.092 17.7087 171.198 19.5728C172.349 21.3925 172.924 23.3897 172.924 25.5645C172.924 28.405 172.017 30.6907 170.203 32.4216C168.389 34.1082 165.999 34.9515 163.035 34.9515Z" fill="black"/>
<path d="M185.841 34.9515C183.717 34.9515 181.814 34.2413 180.133 32.8211C178.451 31.4008 177.102 29.4036 176.084 26.8294C175.111 24.2108 174.624 21.1928 174.624 17.7753C174.624 14.2691 175.133 11.1845 176.151 8.5215C177.168 5.85853 178.562 3.77254 180.332 2.26352C182.102 0.754508 184.071 0 186.239 0C188.85 0 190.951 1.08738 192.544 3.26214C194.181 5.39251 195 8.87656 195 13.7143C195 15.1789 194.447 15.9112 193.341 15.9112H180.73C179.845 15.9112 179.403 16.4216 179.403 17.4424C179.403 22.147 180.089 25.6755 181.46 28.0277C182.832 30.38 184.58 31.5562 186.704 31.5562C188.385 31.5562 189.757 30.957 190.819 29.7587C191.881 28.5603 192.743 26.5409 193.407 23.7004C193.54 23.2122 193.827 22.9681 194.27 22.9681C194.801 22.9681 195 23.4119 194.867 24.2996C194.159 28.2497 193.031 31.0236 191.482 32.6214C189.934 34.1748 188.053 34.9515 185.841 34.9515ZM180.531 14.2469H187.235C189.358 14.2469 190.42 13.1373 190.42 10.9182C190.42 8.03329 190.066 5.76976 189.358 4.1276C188.651 2.48544 187.589 1.66436 186.173 1.66436C184.447 1.66436 182.987 2.66297 181.792 4.6602C180.642 6.65742 179.89 9.49792 179.536 13.1817C179.447 13.8918 179.779 14.2469 180.531 14.2469Z" fill="black"/>
</svg>
